D:\school\WTK\thesis\model\3dpredictsim\Results\batch_windlass\Pog_s1_tmt_aCst_d05_k1000_WL20_ig24_pas_GRF.mot
nRows=30
nColumns=19

name D:\school\WTK\thesis\model\3dpredictsim\Results\batch_windlass\Pog_s1_tmt_aCst_d05_k1000_WL20_ig24_pas_GRF.mot
datacolumns 19
datarows 30
range 0.0000000000 0.3109333103
endheader
time 	ground_force_vx	ground_force_vy	ground_force_vz	ground_force_px	ground_force_py	ground_force_pz	1_ground_force_vx	1_ground_force_vy	1_ground_force_vz	1_ground_force_px	1_ground_force_py	1_ground_force_pz	ground_torque_x	ground_torque_y	ground_torque_z	1_ground_torque_x	1_ground_torque_y	1_ground_torque_z
        0.0000000000	      -98.0422027875	       78.8616065410	       30.6241089864	        0.1366245971	        0.0000000000	        0.0413595630	       90.3337258885	      449.5120839394	       -3.5747655531	       -0.3305602310	        0.0000000000	       -0.0357869753	        0.0000000000	        0.0000000000	        0.0000000000	        0.0000000000	        0.0000000000	        0.0000000000	
        0.0107218383	     -144.5730501005	      158.7959828231	       70.1020501278	        0.1472068030	        0.0000000000	        0.0402917442	       68.4640960897	      366.1457102806	       -9.8889486734	       -0.3256298747	        0.0000000000	       -0.0339953053	        0.0000000000	        0.0000000000	        0.0000000000	        0.0000000000	        0.0000000000	        0.0000000000	
        0.0214436766	      -65.6759939550	      350.3289697491	       28.8826753025	        0.1610727257	        0.0000000000	        0.0411123440	       39.9506603569	      267.9819353061	      -12.3240512971	       -0.3172374425	        0.0000000000	       -0.0302667611	        0.0000000000	        0.0000000000	        0.0000000000	        0.0000000000	        0.0000000000	        0.0000000000	
        0.0321655149	      -63.7864445473	      574.2286828111	       -2.1846619355	        0.1688593998	        0.0000000000	        0.0424934289	       17.1220394851	      179.6694627297	      -11.1293911766	       -0.3038030054	        0.0000000000	       -0.0232663954	        0.0000000000	        0.0000000000	        0.0000000000	        0.0000000000	        0.0000000000	        0.0000000000	
        0.0428873531	      -87.5012483792	      753.1335015259	      -11.4001904749	        0.1759734052	        0.0000000000	        0.0430985251	        2.7856511420	      144.9502302675	      -11.4908928966	       -0.3001847869	        0.0000000000	       -0.0209918119	        0.0000000000	        0.0000000000	        0.0000000000	        0.0000000000	        0.0000000000	        0.0000000000	
        0.0536091914	     -115.0501086298	      864.0245657474	      -13.1024260960	        0.1842530436	        0.0000000000	        0.0430152829	       -1.5332738789	      109.8718358204	      -11.6588259874	       -0.2998838179	        0.0000000000	       -0.0210734149	        0.0000000000	        0.0000000000	        0.0000000000	        0.0000000000	        0.0000000000	        0.0000000000	
        0.0643310297	     -120.2424333591	      902.5298368598	      -12.9172449442	        0.1920708827	        0.0000000000	        0.0424188446	       -9.8308994420	       68.5069713644	      -10.5541730993	       -0.3000413589	        0.0000000000	       -0.0211762576	        0.0000000000	        0.0000000000	        0.0000000000	        0.0000000000	        0.0000000000	        0.0000000000	
        0.0750528680	     -112.1323161184	      877.3269511081	      -11.2984564210	        0.1966140471	        0.0000000000	        0.0419299567	       -9.7177815183	       22.9964784082	       -4.4677386221	       -0.3003186870	        0.0000000000	       -0.0209647983	        0.0000000000	        0.0000000000	        0.0000000000	        0.0000000000	        0.0000000000	        0.0000000000	
        0.0857747063	      -97.0779003464	      832.0623013697	      -11.6262913436	        0.1997957476	        0.0000000000	        0.0415501492	        0.1432671132	       -0.1410474824	        0.0050903406	        0.0000000000	        0.0000000000	        0.0000000000	        0.0000000000	        0.0000000000	        0.0000000000	        0.0000000000	        0.0000000000	        0.0000000000	
        0.0964965446	      -82.7168842192	      784.9678510298	      -12.9651845695	        0.2027302346	        0.0000000000	        0.0412789029	        0.0005393939	       -0.0004375599	       -0.0000198668	        0.0000000000	        0.0000000000	        0.0000000000	        0.0000000000	        0.0000000000	        0.0000000000	        0.0000000000	        0.0000000000	        0.0000000000	
        0.1072183829	      -69.7288897664	      742.3858635140	      -13.7486808246	        0.2056262925	        0.0000000000	        0.0411270181	        0.0001916892	       -0.0001346733	       -0.0000111199	        0.0000000000	        0.0000000000	        0.0000000000	        0.0000000000	        0.0000000000	        0.0000000000	        0.0000000000	        0.0000000000	        0.0000000000	
        0.1179402212	      -58.1792043377	      705.2032368999	      -14.7602862512	        0.2086778395	        0.0000000000	        0.0410638773	        0.0009671726	       -0.0006094548	       -0.0000661714	        0.0000000000	        0.0000000000	        0.0000000000	        0.0000000000	        0.0000000000	        0.0000000000	        0.0000000000	        0.0000000000	        0.0000000000	
        0.1286620594	      -48.1195930085	      673.5024646267	      -15.6091697298	        0.2121273761	        0.0000000000	        0.0410698327	        0.0106131957	       -0.0061457199	       -0.0007966377	        0.0000000000	        0.0000000000	        0.0000000000	        0.0000000000	        0.0000000000	        0.0000000000	        0.0000000000	        0.0000000000	        0.0000000000	
        0.1393838977	      -39.4802285237	      648.1102373604	      -16.9433183208	        0.2165359053	        0.0000000000	        0.0411020548	       -0.0442687443	        0.0239589005	        0.0035368524	        0.0000000000	        0.0000000000	        0.0000000000	        0.0000000000	        0.0000000000	        0.0000000000	        0.0000000000	        0.0000000000	        0.0000000000	
        0.1501057360	      -33.2843548194	      628.4496888607	      -18.2089413749	        0.2217543691	        0.0000000000	        0.0411269781	       -0.0336303728	        0.0171983790	        0.0028284624	        0.0000000000	        0.0000000000	        0.0000000000	        0.0000000000	        0.0000000000	        0.0000000000	        0.0000000000	        0.0000000000	        0.0000000000	
        0.1608275743	      -28.9201477681	      613.5342267587	      -18.8989482253	        0.2272732732	        0.0000000000	        0.0411398983	       -0.0218063174	        0.0106145819	        0.0019136469	        0.0000000000	        0.0000000000	        0.0000000000	        0.0000000000	        0.0000000000	        0.0000000000	        0.0000000000	        0.0000000000	        0.0000000000	
        0.1715494126	      -25.1565398268	      602.7321965644	      -19.4077728660	        0.2330290540	        0.0000000000	        0.0411332694	       -0.0169553765	        0.0079041456	        0.0015340419	        0.0000000000	        0.0000000000	        0.0000000000	        0.0000000000	        0.0000000000	        0.0000000000	        0.0000000000	        0.0000000000	        0.0000000000	
        0.1822712509	      -22.2537448808	      594.8297742890	      -19.4132625389	        0.2388882501	        0.0000000000	        0.0411051669	       -0.0169414557	        0.0076032582	        0.0015601282	        0.0000000000	        0.0000000000	        0.0000000000	        0.0000000000	        0.0000000000	        0.0000000000	        0.0000000000	        0.0000000000	        0.0000000000	
        0.1929930892	      -20.0508610668	      589.0279713854	      -19.0284476092	        0.2446303545	        0.0000000000	        0.0410605878	       -0.0215944640	        0.0093704545	        0.0020006346	        0.0000000000	        0.0000000000	        0.0000000000	        0.0000000000	        0.0000000000	        0.0000000000	        0.0000000000	        0.0000000000	        0.0000000000	
        0.2037149275	      -18.5538582940	      585.6077446257	      -18.6605659245	        0.2503426415	        0.0000000000	        0.0409928855	       -0.0334973507	        0.0141077252	        0.0030954496	        0.0000000000	        0.0000000000	        0.0000000000	        0.0000000000	        0.0000000000	        0.0000000000	        0.0000000000	        0.0000000000	        0.0000000000	
        0.2144367657	      -17.5238881407	      583.5540772234	      -18.1875790814	        0.2558954182	        0.0000000000	        0.0409078202	       -0.0591697506	        0.0242764556	        0.0054279185	        0.0000000000	        0.0000000000	        0.0000000000	        0.0000000000	        0.0000000000	        0.0000000000	        0.0000000000	        0.0000000000	        0.0000000000	
        0.2251586040	      -16.2996268500	      581.3463170309	      -17.9820088674	        0.2612091582	        0.0000000000	        0.0408122979	       -0.1106782627	        0.0443977625	        0.0100518197	        0.0000000000	        0.0000000000	        0.0000000000	        0.0000000000	        0.0000000000	        0.0000000000	        0.0000000000	        0.0000000000	        0.0000000000	
        0.2358804423	      -14.5326412341	      578.0911609749	      -17.9284980379	        0.2663065684	        0.0000000000	        0.0407103174	       -0.2054533540	        0.0808614342	        0.0184497164	        0.0000000000	        0.0000000000	        0.0000000000	        0.0000000000	        0.0000000000	        0.0000000000	        0.0000000000	        0.0000000000	        0.0000000000	
        0.2466022806	      -12.4375941368	      573.7139739124	      -17.7345551873	        0.2712478811	        0.0000000000	        0.0406020981	       -0.3600155122	        0.1394939815	        0.0319696506	        0.0000000000	        0.0000000000	        0.0000000000	        0.0000000000	        0.0000000000	        0.0000000000	        0.0000000000	        0.0000000000	        0.0000000000	
        0.2573241189	      -10.0480534232	      568.6487618555	      -17.6611119926	        0.2761234262	        0.0000000000	        0.0404773681	       -0.5735575235	        0.2195202407	        0.0502645758	        0.0000000000	        0.0000000000	        0.0000000000	        0.0000000000	        0.0000000000	        0.0000000000	        0.0000000000	        0.0000000000	        0.0000000000	
        0.2680459572	       -7.4394152437	      562.9232260572	      -17.4066439476	        0.2809430747	        0.0000000000	        0.0403354353	       -0.8184317526	        0.3103485399	        0.0704404744	        0.0000000000	        0.0000000000	        0.0000000000	        0.0000000000	        0.0000000000	        0.0000000000	        0.0000000000	        0.0000000000	        0.0000000000	
        0.2787677955	       -4.5028282168	      556.5924066725	      -16.6545143140	        0.2857253960	        0.0000000000	        0.0401764073	       -1.0507564106	        0.3957158066	        0.0881170351	        0.0000000000	        0.0000000000	        0.0000000000	        0.0000000000	        0.0000000000	        0.0000000000	        0.0000000000	        0.0000000000	        0.0000000000	
        0.2894896338	       -1.0098027607	      549.7278852158	      -15.3935830956	        0.2904748145	        0.0000000000	        0.0399982803	       -1.2398243876	        0.4644309262	        0.0998668822	        0.0000000000	        0.0000000000	        0.0000000000	        0.0000000000	        0.0000000000	        0.0000000000	        0.0000000000	        0.0000000000	        0.0000000000	
        0.3002114720	        2.9615715235	      542.8199463153	      -13.5433619128	        0.2951625900	        0.0000000000	        0.0398020140	       -1.3875117241	        0.5174330087	        0.1049458141	        0.0000000000	        0.0000000000	        0.0000000000	        0.0000000000	        0.0000000000	        0.0000000000	        0.0000000000	        0.0000000000	        0.0000000000	
        0.3109333103	        6.7282626882	      537.2619547981	      -11.3357526051	        0.2996929609	        0.0000000000	        0.0395900911	       -1.4976683116	        0.5565140279	        0.1031936600	        0.0000000000	        0.0000000000	        0.0000000000	        0.0000000000	        0.0000000000	        0.0000000000	        0.0000000000	        0.0000000000	        0.0000000000	
